/* XPM */
static char *_8937_8c47445612c3113bc5b208a28224f26ad67c889155262fedf76ac741c4ce2acf[] = {
/* columns rows colors chars-per-pixel */
"64 64 236 2 ",
"   c #0D0000",
".  c #130300",
"X  c #190600",
"o  c #160900",
"O  c #1B0B00",
"+  c #1E1105",
"@  c #241607",
"#  c #281E15",
"$  c #2E2316",
"%  c #332312",
"&  c #3C2D1C",
"*  c #382716",
"=  c #352001",
"-  c #392D21",
";  c #3C3325",
":  c #48341A",
">  c #51340E",
",  c #423223",
"<  c #4A3C2C",
"1  c #483A26",
"2  c #523E25",
"3  c #584427",
"4  c #4F4535",
"5  c #544333",
"6  c #5D4A34",
"7  c #574939",
"8  c #5A523B",
"9  c #654B29",
"0  c #79592B",
"q  c #654E32",
"w  c #695537",
"e  c #735A34",
"r  c #7C5E33",
"t  c #735C3B",
"y  c #69512D",
"u  c #7C6239",
"i  c #5A4D40",
"p  c #5E5440",
"a  c #635344",
"s  c #685949",
"d  c #735E42",
"f  c #644E41",
"g  c #6D634C",
"h  c #7C6444",
"j  c #7B6A4C",
"k  c #756449",
"l  c #6F6251",
"z  c #786A57",
"x  c #79705D",
"c  c #7E7261",
"v  c #815E35",
"b  c #836334",
"n  c #84653B",
"m  c #85693C",
"M  c #8A6B3C",
"N  c #896836",
"B  c #936E36",
"V  c #98753C",
"C  c #A47C3E",
"Z  c #A0773F",
"A  c #846A44",
"S  c #8C6D43",
"D  c #836D4C",
"F  c #876A47",
"G  c #916F44",
"H  c #8E7243",
"J  c #8D724C",
"K  c #8F784C",
"L  c #937444",
"P  c #9A7643",
"I  c #9A7B45",
"U  c #93754C",
"Y  c #98774C",
"T  c #957A4C",
"R  c #9B7C4C",
"E  c #967944",
"W  c #886D52",
"Q  c #8C7453",
"!  c #88765A",
"~  c #937652",
"^  c #957B52",
"/  c #9B7D53",
"(  c #937C5B",
")  c #9C7E5A",
"_  c #967758",
"`  c #A37E4B",
"'  c #A27D45",
"]  c #A07F52",
"[  c #A07E58",
"{  c #867966",
"}  c #9A7E66",
"|  c #9D804D",
" . c #9D8255",
".. c #9D835B",
"X. c #998359",
"o. c #8D805E",
"O. c #A4824D",
"+. c #A9864C",
"@. c #A38354",
"#. c #AA8654",
"$. c #A68955",
"%. c #AB8A55",
"&. c #A3855B",
"*. c #A8875A",
"=. c #A58A5C",
"-. c #AB8C5C",
";. c #B28D5C",
":. c #B38C55",
">. c #AE915D",
",. c #AD9056",
"<. c #B3925C",
"1. c #B9955F",
"2. c #9C8464",
"3. c #988768",
"4. c #998974",
"5. c #978C73",
"6. c #A38662",
"7. c #A58B63",
"8. c #AB8D63",
"9. c #A58B6B",
"0. c #AA8E6B",
"q. c #A3866A",
"w. c #B18E64",
"e. c #B18F6B",
"r. c #AD9163",
"t. c #AC926B",
"y. c #A8946A",
"u. c #B39364",
"i. c #BA9563",
"p. c #B59965",
"a. c #BB9A65",
"s. c #B3956B",
"d. c #B9976C",
"f. c #B5996B",
"g. c #BA9B6C",
"h. c #A58E73",
"j. c #A59375",
"k. c #AC9473",
"l. c #AC967B",
"z. c #AB9A7D",
"x. c #A99778",
"c. c #B29673",
"v. c #B49A73",
"b. c #BB9D73",
"n. c #B49B7A",
"m. c #BA9E7A",
"M. c #B19679",
"N. c #BEA16D",
"B. c #BDA173",
"V. c #B5A17B",
"C. c #BCA27B",
"Z. c #B8A47A",
"A. c #C19D6C",
"S. c #C19D66",
"D. c #C19E75",
"F. c #C2A16D",
"G. c #C9A56C",
"H. c #C2A274",
"J. c #C3A57B",
"K. c #C5A97C",
"L. c #CAAB7C",
"P. c #CAA775",
"I. c #D2AD7B",
"U. c #D4B37C",
"Y. c #DBB77C",
"T. c #CBB07B",
"R. c #9E9180",
"E. c #AE9B82",
"W. c #A89A87",
"Q. c #B29C83",
"!. c #B99E82",
"~. c #B59F8A",
"^. c #B5A383",
"/. c #BCA383",
"(. c #BEA985",
"). c #B5A38A",
"_. c #BCA58A",
"`. c #BDAA8C",
"'. c #BCAB93",
"]. c #BEAE9D",
"[. c #B7A693",
"{. c #B5A88F",
"}. c #BEB1A0",
"|. c #C3A581",
" X c #C5AA83",
".X c #CAAC84",
"XX c #C3AC8C",
"oX c #CBAE8A",
"OX c #C4A787",
"+X c #D1AF84",
"@X c #CDB185",
"#X c #CCB28B",
"$X c #C6B28C",
"%X c #D3B384",
"&X c #D4B68C",
"*X c #D8B989",
"=X c #C3AD93",
"-X c #C6AE98",
";X c #C5B294",
":X c #CBB494",
">X c #C5B39A",
",X c #CBB59B",
"<X c #CDBA9C",
"1X c #CEB995",
"2X c #D3BA93",
"3X c #DABC93",
"4X c #D3BD9C",
"5X c #D6B894",
"6X c #E1BC8D",
"7X c #C4B4A3",
"8X c #CDBBA2",
"9X c #CBBCAB",
"0X c #C8B8A3",
"qX c #D1BDA3",
"wX c #D3BFA9",
"eX c #D1B7A0",
"rX c #D9C19E",
"tX c #E5C697",
"yX c #E7C48E",
"uX c #D4C2A4",
"iX c #DAC4A4",
"pX c #D5C3AC",
"aX c #DAC5AC",
"sX c #DCC9AD",
"dX c #D9C6B3",
"fX c #DDCBB3",
"gX c #D7C6B5",
"hX c #CCC1AD",
"jX c #E2CBAB",
"kX c #E5CAA4",
"lX c #E2CDB2",
"zX c #E4D2B4",
"xX c #E5D1BB",
"cX c #F1D9B5",
"vX c #E6D3C3",
"bX c #F5E1C0",
/* pixels */
"x c l z { z c { x l s a l g { o.{ 4.j l 1 l a 1 7 s l k ! l w s w w g x l l { c l l c c c { c { { z g x c c c { R.5.o.3.y.o.5.x.",
"j.4.W.}.0X}.7X}.}.7X9X9X9XhXhX0XpXpX].>X9XdXpX[.>X[.].xXdX>X[.W.).'.,X0X>X).[.].7X>X].[.R.W.[.W.R.W.5.W.W.4.4.c 5.5.! ! x u j j ",
").-XdXdX>X[.wX9X7X].7X9XgXgXgXvXfX0XuXpXzXwXeX~.h.h.[.<XwXwXpX,X>X1XqXsXlXaXpXwXpXpX>X8XgXpXwX9XuXuXxXfXgXgXgXdXhXsXpXuXuXuXuXuX",
"uX:XwXwXwXeX7XwXgX7X[.[.}.7XhXhX9X=XfX9XaXaXwX-X~.E.Q.XX:XXX!.iX8X<X,X:X=XqXsXuXaX0X,X>X0XeXwXuXuX}.hX}.pXdX7X0X'.uXpX<X$X{.`.`.",
";X1X_.:XlXqXwXwXdXdXvXgXgXgXgXgXsXuXsX_.>XsXpX1XeX>X;XXXrXk.(.iXqXiX4X4X:X4X4X;X,X<XqX,X=XqXuX1X1X`.:X;X<X-X0XzXsXuXsXuXzXuX<X;X",
"4XjXiX=XoX-X:X=XaX8XuXpXhXgX0X].pXiX,XV.;XXX/.:XXX`.:X:X1X2X1Xn.5X4X4XiXXX;XqXiX:X;XXX/.z./.rXXX(.1X4X_.:XaXeX_.`.{.uX`.<X{.$X;X",
"!._.!.Q.~.OX-XXX:X_.>X;X;XuXwX<XqXwX8X:X1Xz.h._./.!.:XM.7...t.t.|.C.!.$X^./.|.m.n.1X/./. X/.#XrX1X`.1X:X:XiX,X4X{.Z.Z.V.{.$X;X<X",
"eXeXeX~.-XaXwXaX_.3.x.V.^.j.j.^.h.E.XXXXh.k.2.3.k.n.9.9.k.2.2.v.n.oXJ./.C.v.0.t.v.|.J.C..X@XC.v.v.Z.^.!.n.!.!.9.(.`.`.(.(.$X{.Z.",
"-X-X=X=X=X,X0X>X0XQ.4.4.V.z.;X`.=X_.!.M.k.l._ } M.m.n.s.c.n.c.oX3X.X.X|..X|.#Xb.m.b.%X X@X.X@X XoXC.oX|.|.m.b.(.Z.Z.c.n.J.v.m.b.",
"7X[.~.~.>X[.'.Q._.).Q.h.E.W.`.).=Xm.l.2.0._.k.t.0.j.c.n.0.0.q.7.2.6.t.7.X.7.n.J.C.0.m.#X2X.X.X#X5X:XOX$XC.$XoX5XrX@XJ.b.J.J.+Xg.",
"=XeX7XwXxXwXwXwXdXdXwXdXvXwXpXpX>X8X>XiXlXXX`.`.=X_.XX>X=X:X:XiXrX:XsX1X<XzX;X`.4XoX:XiXrXrX2X4X4XqX<XiX:X4XrX#X#XrX1X#XC.C.s.K.",
"wXeX-X,X~.E.Q.Q._.-X~.'.~.W.W.-X8X,X,X8X>X'.>X>XfX<X`.'.,X>X=XqX>X>XuXpX<X_.>XuX>X,XiXuX<X,X1X;X,XuX<XuX4X1X:X(.iXiX:XXXn.#X XZ.",
"~.l.} d W 3.l.9.E.OXXX-XeXeX=X-X>XaXdXfXfXzXpXaX,XpXfXvXdX7X>X9XsXpX,X>X>X'.wX>XuX8XaXfXzXfXxXlXpXuX).>X<X`.).uX8X:XaXwXpX>X$X_.",
"jXOX-XoXm.C.5XiXqXkXkX#XoX0.c.!.!././.iX<X<X4X4X<X:X,X,XeXwXxXdX<X`.`.;X;X4X_.:X;X1XjXjXjX5XeX#X;X=XXXXXoX$X$X`._.:XdX,XuXrXrXiX",
"#X|.OXoXoX@XJ.J.+XA.;.O.*.` ;.D.%X%X+XP.D.P.i.d.J.D.C.v.v.D.#XD.C.@X X.XJ.oX|.|. Xm.8.w.OX+X.Xe..Xd..X*X*XH.H.J.&Xm.Z.m.v.C.y.X.",
"D.D.D.;.u.<.d.#.#.%.#.w.i.` V B O.S.I.P.i.i.P.A.H.A.i.g.P.L.oXL.*XK..X.X%X.XD..XoX+XD.D.+XD.i.*.A.U.G.a.1.a.` %.A.J.L.b.u.f.-.>.",
"%XP.G.i.S.P.:.1.;.#.d.+X6Xi.;.` #.S.G.U.yX%X%X*X6XtXtXtXtX*XtXtXtX@X*XK.U.*X6XtXrX*X6X3XJ.%X*XI.P.I.I.Y.Y.G.Y.U.G.U.U.U.T.%X%XU.",
"e.w.-.H v n S -.U U _ G G v G S Y N v G S 0 y r W u h D u J D h A A u t A A e e e r ~ _ F H m m 0 v b L -.T L R M N H J ~ =./ ..",
"O O         .     o     . X . . . X X X . . X . . . .   .       .       o   . O . .     @ @ O . . + @ . O o         o o .   O + ",
"a 7 7 7 i 7 i 4 4 4 p 8 f 7 5 7 a f f a f f w 6 6 s i p s s s l p s a p a a s s 5 5 7 1 & : % & , - - % $ & , & $ % @ + # + # O ",
"Z.9.XX_.>XpX:X;X1X(.V.Z.1XkX:X:X2XkX4XiX4X4X4X1X/./.rX:X:X;XXXXX[.XX-XOX#Xt.k.#XkX5X2XkX1X@X@XZ.m.M.n./.n.n.#XZ.$XC.(.V.XX$X/.m.",
" .=.|. XOXn.v.0.>...| | R r.-.-.=.>.@.f.v.0.v.#X XC.Z.v.f.f.B.K..X.X&XL.#XL.K.B.d.r.-.B.N.N.,.N.L.v.8.g.L.K.@XB.u.r.f.N.d.r.s.f.",
"~ / / 0.m.c. Xb.K.B.K.p.g.$.d.8.r.f.-.R ..7.t.t.7.n.U s.=.r.-.f.6.6.v..X.X.X&X.XJ.&Xf.Z..XK.f.B.3XL.H.J.T.H.L.%XB.g.g.L.F.8.f.g.",
"K.b.|.m.v.7.t.k.s.t.y.B.s.s.b.J.t.H.3X.X Xm. X&X5XoXoX.Xs. .u.b.0.s.=.6... .=.~ U 7.&.J S  .=.7.-.u.u.[ @.-.a.N.L.N.P.%XH.g.N.U.",
") 6.) 7.....~ ..2.j.m.m.m.v.6.c.r.t.n.v.$XC.Z.V.#XrXZ.K..X X5X&X&XtXH.=.f.H.L.N.d.v.d.&.=.&.f.f.B.g.1.$.%.%.F.#.I V O.| :.<.,.1.",
"2.~ ~ 8.=.7.y.k.k.0.M.!.0.} c.6.( ( 9.7.k...r.v.=.7.X.X.t.c.t.c.b.f.-.f.r.=.7.B.b.v..XJ.m..Xf.b.g.u.-.$.@.R I O.;.,.$.+.+.<.S.1.",
"..=.=.-.| |  .r.e.q.0.m.7.) *.8.7.0.v.c.m.J.Z.k.v.Z.v.Z.m.m..Xm.C.c.t.C.r.7.=.&.6.7.9.6.c.0.|.m.v. . .7. . ./ T $.&.T T H | O.$.",
"R / O.$.| L H -.) ) s.q.0.G / d.c.7.) c.m.C.0.t.|.OXZ.v.s.m.v.#XJ.v..X#X@X|.oX Xc.OXc.t.m.OX|.OXc.C.n./ X.t.B.r.8.-.>.r.>.$.H $.",
"P ` ;.<.R O.] Y @.Y S Y S r 0 0 M S ^ t.7.) 2.m.c.q.2./ 0.s. .8.0.7.r.0.f.f.r. .d.f.7.&.w.J.-.P &.t.v.f.*.Y r.f.>.,.| O.| $.B V ",
";.*.-.*.R ] *.s.] Y 8.@.[ *.8./ L Y U r S U ) U J J ..&. .S L n T &.-.8. .@.&.8.-.| 8.] L N N b Y -.n E w.-.U I ,.| B C V I V V ",
"Y &.t.) ^ [ _ / ..=.7. .^ 6.U ~ L [ #.Y *.R Y U @.R @.S  .T b S n r 0 m S M L I L v M P b V 0 B P ` P %.:.#.` +.+.' C :.C C +.C ",
"S A ~ U J q.0.q...v.7.7.7.2.9.0.w.-.Y *.d.d.-.g.d.B.u.-.@.-.-.-.L A b v S E -.U -.H.-.<.a.%.;.;.] ` *.%.' ` :.:.' Z C C C C B V ",
"> y n G S e.d.s.7.U 7.c.0.7.z./.8.*.L u.f.r.r.8.=.X.v.s.v...*.v.b.b.0.=.C.f.8.g.N.g.g.K.p.<.w.@.=./ =.d.i.w.-.@.I ;.u.%.$.p.p.,.",
"> M m G *.G G G / 8.s.s.0.n.n.6.&.8.8.U ~ / s.C.v.6.../ ) ..U U ~ &.H ..0./ r.0.u  . .R Y 8.6.7.m.7...7.#.-.@.d.8. .f.A K X.| r.",
"` G @.I Y ;.Y *.@.-.B.J.J.t.v.B.v..XD.) =.t.) ) y...s.s.) r.d.v.f.u.=.-.&.s.f./ =.r.7.$.-.R L U &.0.6.~ L [ ^ t.v...6.C.7.7.D J ",
"[ ` [ -.@.v #.-.@.I g.d.K.u.=.t.w.w.J.D.s.b.D.oXb.J.b.v.H.&.U 8.-.r. .T &.7./ f.=.| $.T =.-.r.=.6.v.b.f.w.8.-.s.b.m.n.J.M.2.( M.",
"|.OXA.e.J.-.w.H.L.A.g.F.T.%XN.N.d..XD.P -.e.w.*.8.s.*.d.b.Y G G S =.r.B.6.A -.r.=.s.N.p.B.@Xm.s.B.@XT.N.s.f.p.L / B.k.y.k.A 9.j.",
"&XoXe.m..X.XOXJ.0.m.b.f.B.B..X.X3X&XD.|.3X XJ.&XkX3X3XkXoX%XtXD... XjXcXV.Q oXOX2X@X$X#X2X:XoXOX XZ...=.&.f.K.@XrX4XjXbXzXuXjXiX",
"q 1 2 q 3 : : > = 3 q 3 q 3 e w t t 9 w h t w F d D W F e A ) 2.! o.! ! } Q ! 3.5.2.9.7.j.3.h.( o.( j e 3 e e w j j w z z d ! { ",
"} h.W s d 3.! 3.3.3.Q Q q.3.) W ( ( 2.( D Q ( W W A h e A h t u u y q q w k k q t h w w w y 9 w u w u 3 9 0 9 9 t u q w k k h k ",
"M.m.7.A J e.c.v.c.J.7._ w.e.b.m.n.k.^ c.v.t.v.v.|..X XJ. X XJ.J.K.J.K.&XJ.D.|.d.D.+X+X+XJ.J.L.&X.X.X+XL.D.+XL.%XK.s.K.2X@X*X&X*X",
"[ _ f.C.0.) U 7.s.) [ / *._ Y 8.0.b.t...T &./ U s.s.-.*.*.g.d.u.d.F.P.I.A.;.i.-.A.w.%.*.;.-.i.d.i.;.#.A.G.S.S.i.d.f.>.>.g.-.u.a.",
"7.7.7......._ s.v.t.k.7.s.7.) 6..XJ.J.J.&.H / R u.-.@.d.i.8.8.u.>.p.-.-.f.B.d.>.H.>.%.#.r.>.u.8.8.[  .F.A.i.<.@.$.p. .| =.>.p.1.",
"s.v.v.y.k.b.j.Z.V.V.y.v.7.0.s.v.r. XB.f.u.r.u.#.u.+XP.g.-.i.H.g.<.N.<.p.r.g.p.p.F.P.L.L.N.f.E M b r S U L @.$.r.N.r.f.Z.X.N.N.>.",
"7.X.t.t.X.=.y.y.y.y.=.v./ =.B.=.] M v 0 L ;.#.P O.;.#.i.D.S.S.H.| I R F.u.>.R @.>.p.-.$.u.<.d.g.s..... .&.r. .U r.C.C.K.p.=.E =.",
"/ T ..7.7.y.0.y.7.b.v.7.f.f.r.-.*.-.#.] -.;.] *.O.;.;.;.i.u.g.d.-.I @.p.u.u.H.I.<.N.$.%.p.T 8.=.7.&.8.b.g.r.u.t.f.Z.v.f...X.p.B.",
"v.t.7.6.c.6.J X.0.U &.&.=.=.-.=.d.../ s.s.d.D.d.-.d.g.s.g.L.L.u.g.*.-.u.b.P.J.d.g.J.u.L.f.8.8.u.p.=.u.a.g.u.u.u.0.=.&.7.7./ =.>.",
"s.0.7.~ ) _ ) 0.7.0.=.&.f.f.@.@.s. .8.v.8.r.u.d.g.r.8.f.8.J. XJ.-.*.@.*.*.s.*.] r.$.a.-.Y Y s.H.N.p.H.>.a.N.$.R f.r.p.r.&.-.*./ ",
"..t...7.A ~ ) &.) _ *.=.&.@.-.%.$.r.r.$.8.K.R L M I p.<.g.C..XoXb.b.J.D.b.g.u.p.a.N.F.H.8.=.*.v.B.>.p.,.>.%.p.| -.r.X.^ y.K.f.r.",
"y.X...v.t.( 0.7...8.7.&./ ;.N.u.*.p.r.-.-.g.-.w.a.| +.N.d.-.u.8.8.s.e.H.g.u.<.>.B I %.a.w.*.8.w.s.$.I | #.u.u.=.>.Z.T u m K | X.",
"=.( X.9.t.0.c.6.0.q.7.e.6.[ 0.v.d.g.-.@.8.-.@.i.u.%.$.-.#.-.D.J..X+XP.v.d.F.N.1.V B %.,.-.D.d.] *.-.-.-.;.*.-.H.8.7.=.&.J &.T / ",
"OXoX^.C.c.c.q.q.c.c.} ) ) m.m.w.s.-.s.8.d.w.s.w.p.#.u.@.Y *.s.-.-.w.p.R @.i.+.P B O.1.;.%.' u.B.d.w.Y E *.R *.s.s.B.v.s.) &.=.f.",
"3.q _ Q.h.k.!.c.t...) X.0.s.s.0.=.>.-.Y w.8.^ *.Y @.u.-.u.&.R -.#.p.g.>.<.-.-.R E | a.,.<.N.u.-./ u.&.8.*.*.s.i.r.t.b.t.&.f.p.D.",
"q.W 0._ y 3 F 7.u S ^ T )  . ./ T b T b.b.D.m.d.d.-.P ] *.;.-.-.=.-.>.T [ *.u.a.>.O.I | g.>.$.@./ s.=.=.-.d.H.-.s.^ 6...U y.&.-.",
"8.w.d.] v v V I L R @.R @.-.-.&.-.G G *.] [ &.*.w.m.;.u.p.g.-.>.p.r.d.) [ s.8.d.d.E E b M @.$.=.7.0.7.U &.[ 8.) / ~ Q &.7./ ..=.",
"*.Y Y *.#.;.w.O.| #.*.O.R R L L S -.-.R *.Y ) H w.` [ @.*.O.| %. ...@.8.[ [ Y 8.^ M &.O./ -.d.B.v.t.s.7.0.8.8.m.|.y.t.v.Z.t.f.8.",
"R L -.*.O.%.$.$.E %.H.N.f.p.H.f. .$.p.E E $.8.*.@.*.@.O.E $.,.,.$.|  .$.8.f.t.*./ *.u.*.-.=.=.f.=.X.t.f.7.=.R r.t.X.T X.X.X.=.H ",
"L L / Y  .L L &.| $.=.M u | M H E I >.| E O.P <.#.%.<.;.1.,.+.+.,. . .r.8.u.8.u.*.;.O.p.g.<.<.R =.X. .$.=.=.R T  .7.T K =.p.y.$.",
"OXoX0.8.r.&.8.-. .L T =.X.| p.=.#.<.1.>.1.1.O.` #.;.O.B O.' ' O.O.%.%.O.` ] ] %.;.` +.<.O.#.+.%.-.u.8.-.$.O.u.u.N.>.=.f.s.r.>.$.",
"d d W j h _ Q o.Q ( M.Q 3.v.y.n.=.7.&.X.-./ @.=.[ &.t.f.f.N.f.r.f.H..Xu.d.0.d.J.J.g.B.b.>.u.f.C.0.V.C.J.v.s. X X2X(.V.Z.V.9.p.K.",
".                       O +     o o + o + + @ * % % * & & & * : 1 1 & % % , , 2 3 3 8 6 3 5 5 3 5 5 5 6 6 6 6 5 4 i 4 < 7 , - < ",
"s p 8 ; 5 - ; 4 ; ; ; - $ $ $ $ # $ + @ + @ +     .     o           o + . X   .   .       .   + . . o . . .   O O + o . . o o . ",
"`.^.z.x.=XE.Q.l.).Q.E._.qX<X'.^.'.'.5.{.`.Z.^.z.E.j.h.3.! z.].{.>Xj.3.E.).E.~.W.^.z.V.'.! k ).z.j.k.k.k.V.n.j.V.j.z.E.{.'.^.z.l.",
"c.( 0.^.k.l.h.-X~.x.q.oXk.k.Z.n.'.V.3.3.Z.Z.V.V.x.iX<X'.^.`.x.V.x.x.3.Q.3.h.XX<X^.;X$X^.1X^.j.2.v.v.8.r.v.B.f.C.k.V.Z._.(.x.y.v."
};
