/* XPM */
static char *_2665_3e8a0343853912741a1460a19dc8593caf55b343a901ddceee7b33094f35e304[] = {
/* columns rows colors chars-per-pixel */
"64 64 251 2 ",
"   c #3B1A18",
".  c #350906",
"X  c #392220",
"o  c #55150E",
"O  c #441C1B",
"+  c #4C1C1B",
"@  c #491714",
"#  c #541D1C",
"$  c #5B1D1B",
"%  c #571A15",
"&  c #46110A",
"*  c #671D19",
"=  c #701D17",
"-  c #4C211C",
";  c #45221D",
":  c #54221D",
">  c #5B221D",
",  c #58261D",
"<  c #64231D",
"1  c #6C241D",
"2  c #68281D",
"3  c #72231D",
"4  c #79261C",
"5  c #4B1F21",
"6  c #591D21",
"7  c #641E22",
"8  c #4D2323",
"9  c #492826",
"0  c #542323",
"q  c #5C2423",
"w  c #552B25",
"e  c #5C2A25",
"r  c #5B2629",
"t  c #542B2A",
"y  c #5D2B2A",
"u  c #54262A",
"i  c #53322B",
"p  c #5C332C",
"a  c #59362B",
"s  c #5C3332",
"d  c #5C3B34",
"f  c #583836",
"g  c #503231",
"h  c #632523",
"j  c #6B2522",
"k  c #642B25",
"l  c #6B2B24",
"z  c #642629",
"x  c #6C262A",
"c  c #642C2B",
"v  c #6B2C2B",
"b  c #732522",
"n  c #7B2623",
"m  c #732A24",
"M  c #7C2B25",
"N  c #742C2A",
"B  c #7B2D2A",
"V  c #76262B",
"C  c #6B3126",
"Z  c #64322C",
"A  c #6C332D",
"S  c #69372C",
"D  c #73332B",
"F  c #7B332C",
"G  c #77362A",
"H  c #662E31",
"J  c #643433",
"K  c #6C3432",
"L  c #633B34",
"P  c #6B3A34",
"I  c #643D3C",
"U  c #6B3C3B",
"Y  c #68373A",
"T  c #743433",
"R  c #7B3533",
"E  c #743C34",
"W  c #7B3C35",
"Q  c #743D3A",
"!  c #7B3B3A",
"~  c #772D30",
"^  c #5C423B",
"/  c #5A4539",
"(  c #4E4236",
")  c #64433D",
"_  c #6B433C",
"`  c #67453B",
"'  c #74433C",
"]  c #7C443D",
"[  c #78473A",
"{  c #6E3E42",
"}  c #5D4643",
"|  c #6C4442",
" . c #654945",
".. c #6D4A44",
"X. c #6C4C4A",
"o. c #644544",
"O. c #744643",
"+. c #7B4541",
"@. c #734B44",
"#. c #7C4B44",
"$. c #734C4B",
"%. c #7B4C49",
"&. c #69524D",
"*. c #74534C",
"=. c #7B534C",
"-. c #795548",
";. c #6C5754",
":. c #755252",
">. c #7E5B54",
",. c #7C5C5B",
"<. c #775956",
"1. c #724A51",
"2. c #7A625B",
"3. c #7D5E61",
"4. c #7A6664",
"5. c #7E7371",
"6. c #88281D",
"7. c #832D29",
"8. c #862D26",
"9. c #932E27",
"0. c #83332C",
"q. c #8B332C",
"w. c #88382C",
"e. c #96382B",
"r. c #843432",
"t. c #833C34",
"y. c #8C3C34",
"u. c #833E3B",
"i. c #8B3734",
"p. c #923B34",
"a. c #963A37",
"s. c #822D32",
"d. c #A2382F",
"f. c #82443D",
"g. c #854A3D",
"h. c #894439",
"j. c #974539",
"k. c #934B39",
"l. c #A54639",
"z. c #823D40",
"x. c #834B44",
"c. c #8C4B43",
"v. c #864947",
"b. c #964A44",
"n. c #83534B",
"m. c #8C534C",
"M. c #865346",
"N. c #98554A",
"B. c #8D5653",
"V. c #8C5A55",
"C. c #845C5A",
"Z. c #8C5D5B",
"A. c #845854",
"S. c #965A56",
"D. c #8E4F57",
"F. c #A45549",
"G. c #A25D54",
"H. c #AA4F45",
"J. c #84625B",
"K. c #8C635D",
"L. c #876559",
"P. c #92635C",
"I. c #996459",
"U. c #A2625C",
"Y. c #AD6152",
"T. c #935E61",
"R. c #865C60",
"E. c #846362",
"W. c #8A6563",
"Q. c #846A64",
"!. c #8C6B64",
"~. c #8B6C6B",
"^. c #846B6A",
"/. c #936563",
"(. c #946B64",
"). c #9B6B65",
"_. c #936C6B",
"`. c #9C6C6B",
"'. c #996565",
"]. c #8A736C",
"[. c #94736C",
"{. c #9A736C",
"}. c #997769",
"|. c #8A7774",
" X c #9B7473",
".X c #9A7B74",
"XX c #9D7C7B",
"oX c #957975",
"OX c #946F73",
"+X c #A46C67",
"@X c #A7756B",
"#X c #A37473",
"$X c #A47B75",
"%X c #A37C7B",
"&X c #AB7D7B",
"*X c #AA7874",
"=X c #AF7574",
"-X c #9D837D",
";X c #92817C",
":X c #8F837D",
">X c #A3837C",
",X c #AB837D",
"<X c #A88678",
"1X c #B6847C",
"2X c #A7826D",
"3X c #C0817A",
"4X c #987F80",
"5X c #A77E81",
"6X c #B37F81",
"7X c #9B8481",
"8X c #978986",
"9X c #96918D",
"0X c #A38482",
"qX c #AB8483",
"wX c #A48A85",
"eX c #AC8A84",
"rX c #AC8C8A",
"tX c #A58B8A",
"yX c #B28583",
"uX c #B38A84",
"iX c #B48D8B",
"pX c #BA8A86",
"aX c #AB948C",
"sX c #B5928B",
"dX c #BA948D",
"fX c #BC968D",
"gX c #A89896",
"hX c #BC9C95",
"jX c #B89996",
"kX c #AA8F91",
"lX c #BAA29E",
"zX c #A9A29A",
"xX c #AE9EA1",
"cX c #A6A6A5",
"vX c #B9A7A6",
"bX c #B9B6B3",
"nX c #C4958C",
"mX c #C59996",
"MX c #C38D8D",
"NX c #C5A29C",
"BX c #D3A39C",
"VX c #C4A4A2",
"CX c #C8A9A5",
"ZX c #D5A9A4",
"AX c #CBB2AD",
"SX c #D4B9B6",
"DX c #D1B3B0",
"FX c #D8ADAC",
"GX c #CAC0BE",
"HX c #C2BCC0",
"JX c #CCCBC8",
/* pixels */
"eXiX5X%X4XkXVX5X'.D.Z.(.4.;.|.4XC.R.T.'.K.!.[.(.V.m.c.V.E.4.OX5X#Xm.N.U.S.U.U.N.N.G.F.F.I.+X@X6X4X<.3.3.:.:.Q.2.<.:.1.:.1.3.1.{ ",
"C.8 5 O . g { s 6 # : s i X 4.4.8 r z H L L Z , < > h K t 9 o.%XK R F F M 0.0.w.w.0.w.t.t.R v.yX:.  X 5 8 O t t ; 0 8 6 6 u g { ",
"% h q 6 @ & + # # $ * q ; 9 3.{ : k z v P K C l 2 * m T K 0 I 1XT F F 0.q.q.8.w.q.9.a.8.q.y.u.=Xn.  5 5 0 # # 0 0 e q 6 z r 5 { ",
"$ $ $ h o + # $ 7 % $ q + 8 E.1.q j j A E E A 1 j * b R Q e O.&XG F w.7.8.8.q.q.9.8.9.q.p.0.B =XT.  u + : # # # $ $ * q 6 6 5 u ",
"$ h z z @ @ e : 6 7 % q 0 0 _.Y z h v ! +.! T z j j V u.{ $ #.yXE N m r.i.s.s.i.i.q.q.7.r.t.u.*XW.. 5 + + 6 6 0 q 6 6 # 6 6 6 t ",
"q q # r u y 8 @ # % o # @   C._.K k z A Y T P H h x N { +.Z Z.$X+.K M.U.v.u.v.R R t.i.u.u.f.x.$XC.X   5 8 t 6 5 u u H 6 r r 0 s ",
"iX>X XXXkXtX,.Q./.Z.P.A.=.~.qXiX*X+X(._.`.W.$.d Z.R./.{. X XsXtX>X.XsXmXqXiXiX%X,XsXnXpX1XiXfXNXjX8X0X5XqXkX5X4X%XOX$X#X&X#X$XsX",
"0X!.,.E.,.kXSXwXA.m.M.M.#.x.n.O.+.M.=.%.$.$.4..X>.O.=.*.O.` >.@.` .._ :.=.$.,.hXsXL...@.@.@.d  . . .o.$.:.1.X.3.jX>.{ U @.O._ _ ",
"r 6 + u   O.BX' l F 0.F 0.F F F N G T z A 0 X..Xy h Z y Z A E K E k q c H r u %X`.- # , q r q q : 0 + r r 8 O t dX{ + 6 z h q < ",
"y 5 H H + Z.nXz F B q.q.8.0.q.7.n R B R T c A./.z ! A k A N N B F h ~ x ! H y yXZ.# $ x 7 7 q z h > 6 q H 0 0 t pX{ q z j x < h ",
"q # r 6 6 `.pX> M n q.8.M 0.7.7.7.i.s.B T v A.`.x N N N R R b V s.7 V 7 x H z MXB.# z x * 7 7 6 z q h 6 r 6 9 ; iX{ 5 h 7 z h z ",
": 8 5 5 5 _.BX=.A u.y.r.F R R R x T R v H y { _.c v H c c v x x V z V v z H 0 yXZ.+ q q # r 6 0 # # 0 0 0 8 ; ; 5X{ 5 u y H y k ",
"i / ^ &.g |.AX-X-.M.[ M.[ ` / ` ..` O.I g g &.~.| $.$...o.i t Y s J Z Y U ....rX%X| $.@.*.X.g / d ` ) %.@.X. . .jX^. .| $.X.o.d ",
"}.dXZXAXjXCXAXlXfX$X$X$X!.L.>XwXaXhXsXrXrX0XrXiXsXjXsXsXwX>XjXeX,XuXpXyXMXpX1XdXfXdXnX>X0X0XtXaXhXfXmXhXhXdXfXhXlXhXhXfXdXrXrXlX",
"h.G.N.u.x.%.Q n.W U.1Xf.J &XsX*...*._ Y | I K Y P P Q c w =.uXO.] t.W B r.F R N m t.f.j l #.fX,X[ [ [ C G l C A G Z k c Q B.C.iX",
"= = b j b j 1 N M m b l l 1XV.e w - e e q k 7 x T c c k e P `.k T m M 7.n n r.7.7.M M B v ] ZXP.> C 3 1 l m 1 2 l j l z h K q pX",
"= n 4 1 b 3 4 4 M 4 M m N S.V.Z y e , k z x 7 l A l A k c Q +Xe D N V M 7.B B B B B B B b c (.@X> G 1 3 2 m 1 3 M m j l l v , uX",
"= 3 < m 1 4 4 6.8.4 w.4 * c.V.a p e : k x l h h S Z K A c T *Xw k N N j N C l D V B ~ l ~ % K.[.> 3 2 m C l 3 3 3 b m l N k , pX",
"l l C G D F 3 0.0.4 0.F D n.A.; i w w e q e c Z ` w w w e Z .X-.O.P K G k C C C A v S Z c - .X).> 1 2 l h < j * j j > $ > k , $X",
"P , ] _ ] ] E j c.u.f.f.x.!.[. .i i w a p Z a 9 9 9 ^ ) ) J..XX.@.-.-.n.-.n.P.#._ =.A.J.A.>.fXsX#.v.m.S.B.n.x.x.K ' v.B.x.V.).BX",
"ZXZXNXsX[.XX.XqXsXnXmXeX$X-XtX-XoXoX X[._.~.~.].].oX7X0XrXjXwXoX.XeXuXdXNXhXuXlXlXlXNXCXNXhXZXNXjXhXNXNXmXNXNXNXmXhXmXBXZXFXBXnX",
"O.+.O...o./ |.2.g $.*._ d i d d d d I U ) I <.-X;.X.o...d f d I Y w w 9 L | ^ [.sXK.[.(.K.A.A...*.*.[ -.[ _ ` ` aXyX+XN.S.S.b.H.",
"< h < q w   2.<.0 Z c , , Z e k e Z A D ' P :.[.s d L c y w e S k k S , e k - ` -XV.m.c.I.S.M.m.[ [ g.[ M.[ A Z 2X2XN.j.y.e.e.e.",
"m 1 2 k e ; J.K.e A k , 2 C 2 C C [ ] T ] ' =.[.' 0 k , > k k < l l < j 2 & a }.$Xm.u.V 0.u.k.N.g.[ g.h.N.g.g.g.1X@Xl.l.j.d.d.d.",
"2 2 1 A L ; >.>.: Z < < C C 2 [ [ [ g.g.] [ -.}.' q k , : k 2 2 j h h v h T P K.K.B.F r.B b F g.m.g.u.h.h.G [ x.2X2XF.j.h.k.e.e.",
"% @ # 0 / 9 -X*.9 e y Z S ' ' [ [ -.M.-.-.-.*.!.L a r : e _ S e e Z q 6 A K | [.!.%.A R R D F f.] n.W v.] > Z a <X2XN.F.F.k.e.h.",
":.2.:. .&.&.aXwX .d ) ` ` / d / / / ^ d / ( ( 2.;./ ^ &.( / } g ) ) ..X.O.I E.jXjXJ.| | %.#.] O.X.<.:.,.E.E.^.|.zXaX-X<X2X@X+X2X",
"SXSXDXAXvXlXlXNXfXnXmXsXeXeX;X|.}.-X-X}.oX-X-X8XgXjXjXsXaXaX8X8X-X-XiXiX&XqXyXqXsX,XuXiX,X#X=XMXtXgXkXkXgXxXgXgX9XaXeXsXnXnX1X1X",
";.d / ..*.@.g.[ U.+XN.] n.[.oXwXK.n.B.+.E +.#.' L =.Z.#.%.=.<.}.*X%.+.+.z.v.R R W ! c.m.c.R u.! jX;X} 9 X X 9 9   8 O & 0 q # . ",
"; ; - w k > G 4 j.j.4 2 C a ) {.A * m N j j h * < l ] A q + i >.*XR c.r.r.a.a.r.q.0.M 0.q.n i.R -X;.9 X X 9 9 i t r q # $ , $ # ",
"+ r w w 2 < 4 4 y.F.w.1 l A =.$X! B R V b B m 1 > ] x.v q w g 2.&XG i.p.p.y.a.q.j.p.7.q.i.8.0.E %X^ X X   X ; e 6 # # # h > : @ ",
"Q y U J w > 2 1 F N.0.3 m v A.&XT N N j m b b 1 2 G f.] e 0 / >.@Xx.R r.r.p.y.a.y.q.0.q.q.q.F +.rXo.X f 9 O - 0 6 + 6 # q 0 0 ; ",
"f { d g d w y E g.k.w.2 l Z -.$Xg.E S G 2 < l x E ' #.#.s s ^ :.<XP.m.N.N.b.b.H.k.c.h.h.b.i.h.' 4Xg   f 8 O 6 + u 6 5 6 6 8 u   ",
"f f  .} ;.&...O.[ h.[ [ [ ` A.<Xn.[ [ [ _ E ] x.=.| Y I s o.o.} [.K.'.).I.I.G.c.A.n.%.m.v.B.%.A.^.4.1.{ O.| o.I { 9 f { g { s X.",
"SXDXDXCXAXSXDXDXNXnX3XnXmXnXnXNXnXnXpXdXBXBXnXpXXXaXeXrXjXkXtXjXgXlXlXhXjXdXiX%X4.^.XX>XpXiXVXDXvXAXAXVXZXCXCXDXAXVXCXVXNXmXVXSX",
"=X&XqXjXAXlX3.4X(.V.M.[ M.N.L.N.M.g.g.P.@X] +.P.sXwX_.OX_._.~._.~.E._.[.W.E.!.E.4.7X].XX_.:.1.:.<...$.| P L ` -.g ].0XL./.P.Z.S.",
"H.F.S.S.#X#Xu 6 e C F F h.h.k.8.e.q.6.h.b.t.F f.1XV.E E l v D D T A l l A C C #.L.>.e k k q > j h $ j m < h > e - ).V.c N B 1 m ",
"H.a.a.F.=XT.+ r > 1 M 0.e.l.j.6.9.9.9.j.H.0.8.t.@Xg.C F D F B 0.y.M M F 4 N G g.P.-.C 2 D b 3 b 3 V 3 3 = m 2 k , S.v.N 0.B 8.4 ",
"d.9.a.b.+XD.6 6 $ h 0.0.e.j.l.e.9.a.9.9.H.7.i.u.=X[ G F 1 B 7.M 7.M M n M F G N.I.S.N B b n = n 3 b 3 b b 2 j k % I.S.* b 7.7.n ",
"9.a.b.{ 6XT.6 u 6 v t.0.j.k.j.w.y.y.0.k.=Xf.R c.1X%.Q K v T N R R m N B F F W V.K.Z.x x v h V 7 m x j j j h A w #.nXx.z D N F m ",
"R z.%.1.OXE.g g f ^ [ L [ ] S P S ' A ' A.U Y @.XX*.) >.@.s S Y I s Y Y J U | o.:.~.{ Y s s H H p w e c e c p t ..uX_.O.B.%.Q +.",
"pX5XiXrXtXtX4X4X-X<XsX<X<X}.L.2.2.!.K.W. X,XqX0XjXhXwXrXoX[.!.J.^.o.4.[.(.[.W.Q.wXvXVXjXkX0XqXjXrX0XqXdX#X`.yXyX0XmXVXZXMXyXuX&X",
"6X`.#XOXOXXX5XrX}.P.).@X<X).,X$XCX}.L.(./.P./.V.!.{.(.(.K.L.-.>.|.^.*.=.[ -.!.}.A.>.T.C.K.L.A.A._.mX*XD.B.S.@X1X*XI.+XS.B.S.+X1X",
"H H r r Y J 6 H Z 2 2 [ ] P ] =.}./ e S e q z z e A ' @.-./ k e *.L.J e a S M.[ p + # 6 w w w 0 p ,XM.l F F h.N.W D N m B F m t.",
"K T K Q Q z q j 2 G G G M.g.E /.R.s H v l v v 7 v v f.#.n.P Z q L.J.K z l E N.g.S 2 C T S S k h S &Xb.F i.M y.F.w.M 7.i.i.7.M B ",
"q k z c v z l D h.F h.m W W E P.W.y x z ~ N N V 1 < T x.] P c $ >.L.H N C G m.k.G 2 G g.A Z z , y pXS.l M M p.F.w.M 7.a.i.8.7.7.",
"k A h z z K T R k.G h.h.t.] W m.Z.y T ~ N N b m 2 2 [ m.=.' 2 : :.OXH z S E N.M.S C [ ] K Z Z J t yXB.K R m t.k.h.0.s.i.a.r.B B ",
"#.#.Q P J J Y q e > 2 k C 2 : @. X8 r z k q $ : , - k Z a , : - >.R.H z : a [ ` a - , a w t i s f 5XC.Y A A x.x.] S H T z.v.u.! ",
"{.~.W.,.;.&.4.OX~.oXE.J.!.%XXXjXvX:XQ.oX~.OX,.2.].].}.P.L.-.}.}.-XtX[.[.<X[./ 2.;.;.;.4.;X].4.oX7X0XrX0XQ. X_.W.,.4.OXXX5XmX%X%X",
"#X&X5X0X4.^.vX4X~.~.5XiX X#X X].|.].aXJ.OX^.zXgX4.K.+X@X2X1X2XP.).*X).1XeXaX-XoXkX~.oX.XL.}..XE.E.~._.XX%X X XoXcXgX4.~.R.,.!.].",
"~ i.N K + $.qX: 6 # 6 z % * < k , l A * $ k '.)., 1 M q.j.Y.k.0.j.b.e.k.G.U.U.*X).' E N G R W l k A k x.] k e w 0X>.; + + + + : ",
"a.a.q.N @ M.pX> x ~ b b n n * D B B n V B x I.).l 7.9.6.l.l.j.9.e.e.l.l.l.F.k.@XG.v M M M 4 B b F M b b.t.l D k {.>.- y h h k > ",
"d.9.a.B o x.1Xk 1 1 = 3 n 8.b 7.7.n b j m < ).@X1 4 6.6.l.H.j.9.e.9.d.l.l.F.N.U.+Xv n 7.8.4 n B 0.7.3 j.F N C 2 <XK.O 6 $ q h $ ",
"a.a.a.R + %.1X: z N m M n * m v x x V ~ l Z L.}.C F 8.0.l.Y.j.w.j.a.q.l.Y.G.G.I.).K < < m m B j 2 3 b h.G k > e [.Q.; u q 0 0 q ",
"V ~ H s 9 / 7X/ w w 0 w y 0 t i s r Y u i g 2.|.- e k k W m.f.[ [ S E g.-.-.P.].>X*...=.` ' A.H P P E D.#.P ` ) 7XwXX u u 8 s t ",
"+X+X`.%X-X].gX.X,.*.$.*.*.X. .f I { R.,.R.|.8X7XL.L.V.V.'.M.x._ p L.}.}.2X}.!.0XwX>XwXdX,X#X$X!.[.E.C.#X X#XiX$X7XCX5X5X5XrXXX%X",
"A._.#X XOX5XXX`._. X.X_. XXXqXjXfX X#X6XOX5XiX_.`.*X+X1X1X@X@X).qXVXqXeX{.,X XW._.%XqX*X`.#X).`.4XSXFXiX#XpX#X*X XXXpXmX6X5X#XT.",
"+ 6 H u u 8 6 u y + +   + u s 5X%.0 z z z 6 H l h D D k.h.W B ] qX,.s ` Z q H z K Y Q Y k $ $ w o.mX1.y y 0 v Z K 0 x { Y 6 @ @ ",
"0 : K v q 0 z ! z k q @ + c u =.S C N b 7 < M = 1 1 4 F.j.h.4 S _.:.I ' A h v K c T f.R l < 2 e ^ jX=.e c k l > k k x v x q $ @ ",
"+ - Z v # q $ c T h : & & e q %.] h j b 7 * * 4 4 = 6.k.h.h.F G %XX.U W m * v z v R R R 3 1 4 , o.VX=.> > % < 2 l 2 1 v q % o o ",
"- - Z ' w , , K K < ,   + e @ n.E j B 1 < o 1 = = = 4 k.h.y.G C {.$.U g.N j N h v T R r.= * x H >.jXV.D.[ G G G f.u.i.! h @ % o ",
"  w ) L ; X 8 w J p + . . - 9 :.:.s K c : + % q 1 w.C g.v.] A ' XXXX| @.Q 6 c y s | +.x.v z z y  .NXT.v.M.[ K E #.Q { %.U 0 r r ",
"9XxXgX;X5.5.:X-XoXQ. .&.} } ;.4.4X4XoX|.;.5.&.} $._.L.L.C.<.4.8XgX9X;.2.~.&.o. .} &.<.<.2.Q.E.;.5.vXVX0XL.2.*.2.;.Q.^.3.4.5.|.^.",
"8X4X8XJXJXcX9X9X9XgX9X4X4X8X8X9XgXgXcX9XcXcX9XcXVXjXjXgXxXgXcXcXcXcXcXzX8X7X9X9XzX9XzX9XgXgXxXxXcXbXAXCXAXzXzXaXbXJXHXbXHXHXHXbX"
};
